# xmcd
#
# Track frame offsets: 
#        150
#        13283
#        24321
#        38536
#        52710
#        66523
#        78876
#        90893
#        103884
#        117469
#        129391
#        143221
#        153916
#        165291
#        176464
#        188974
#        201458
#        212631
#        223834
#        235816
#        248260
#
# Disc length: 3499 seconds
#
# Revision: 0
# Processed by: cddbd v1.5.2PL0 Copyright (c) Steve Scherf et al.
# Submitted via: ExactAudioCopy v1.0b3
#
DISCID=130da915
DTITLE=Gene Autry - Goodbye Pinto
DYEAR=2003
DGENRE=Western
TTITLE0=A Face I See At Evening  (1940)
TTITLE1=Old November Moon  (1939)
TTITLE2=Amapola  (1941)
TTITLE3=Goodbye Pinto  (1938)
TTITLE4=Ride Tenderfoot, Ride  (1938)
TTITLE5=Lone Star Moon  (1948)
TTITLE6=I'm A Cowpoke Pokin' Along  (1942)
TTITLE7=A Goldmine In Your Heart  (1939)
TTITLE8=Twilight On The Trail  (1946)
TTITLE9=Darling How Can You Forget So Soon  (1939)
TTITLE10=Old Buckaroo Goodbye  (1937)
TTITLE11=Keep Rollin' Lazy Longhorns  (1941)
TTITLE12=When It's Roundup Time In Heaven  (1946)
TTITLE13=Too Late  (1941)
TTITLE14=I Want To Be Sure  (1946)
TTITLE15=I Don't Want To Set The Word On Fire  (1941)
TTITLE16=Ther's A New Moon Over My Shoulder  (1940)  (1945)
TTITLE17=Don't Take Your Spite Out On Me  (1945)
TTITLE18=Merry Go Roundup  (1939)
TTITLE19=Address Unknown  (1945)
TTITLE20=Empty Cot In The Bunkhouse Tonight (2)  (1946)
EXTD=
EXTT0=
EXTT1=
EXTT2=
EXTT3=
EXTT4=
EXTT5=
EXTT6=
EXTT7=
EXTT8=
EXTT9=
EXTT10=
EXTT11=
EXTT12=
EXTT13=
EXTT14=
EXTT15=
EXTT16=
EXTT17=
EXTT18=
EXTT19=
EXTT20=
PLAYORDER=
